<svg t="1686900982372" class="icon" viewBox="0 0 1024 1024" version="1.1" xmlns="http://www.w3.org/2000/svg" p-id="1688" width="64" height="64"><path d="M512 74.666667c241.536 0 437.333333 195.797333 437.333333 437.333333S753.536 949.333333 512 949.333333a436.096 436.096 0 0 1-242.986667-73.685333 32 32 0 1 1 35.584-53.162667A372.096 372.096 0 0 0 512 885.333333c206.186667 0 373.333333-167.146667 373.333333-373.333333S718.186667 138.666667 512 138.666667 138.666667 305.813333 138.666667 512a372.096 372.096 0 0 0 62.848 207.402667 32 32 0 0 1-53.162667 35.605333A436.096 436.096 0 0 1 74.666667 512C74.666667 270.442667 270.464 74.645333 512 74.645333z"  p-id="1689"></path><path d="M694.314667 419.072a32 32 0 0 1 43.221333 47.210667l-196.736 180.096a117.333333 117.333333 0 0 1-161.344-2.730667l-83.093333-81.429333a32 32 0 1 1 44.8-45.717334l83.093333 81.429334a53.333333 53.333333 0 0 0 73.344 1.237333l196.714667-180.096z" p-id="1690"></path></svg>